PathFileType	4	(X/Y/Z)	65_2_34_p0_0-285.trc
DataRate	CameraRate	NumFrames	NumMarkers	Units	OrigDataRate	OrigDataStartFrame	OrigNumFrames
41.0	41.0	5	27	m	41.0	0	286
Frame#	Time	RHip			RKnee			RAnkle			RBigToe			RSmallToe			RHeel			LHip			LKnee			LAnkle			LBigToe			LSmallToe			LHeel			Neck			Head			Nose			RShoulder			RElbow			RWrist			RThumb			RIndex			RPinky			LShoulder			LElbow			LWrist			LThumb			LIndex			LPinky			
		X1	Y1	Z1	X2	Y2	Z2	X3	Y3	Z3	X4	Y4	Z4	X5	Y5	Z5	X6	Y6	Z6	X7	Y7	Z7	X8	Y8	Z8	X9	Y9	Z9	X10	Y10	Z10	X11	Y11	Z11	X12	Y12	Z12	X13	Y13	Z13	X14	Y14	Z14	X15	Y15	Z15	X16	Y16	Z16	X17	Y17	Z17	X18	Y18	Z18	X19	Y19	Z19	X20	Y20	Z20	X21	Y21	Z21	X22	Y22	Z22	X23	Y23	Z23	X24	Y24	Z24	X25	Y25	Z25	X26	Y26	Z26	X27	Y27	Z27	
0	0.0	0.4134860594538597	0.6253922307348163	0.3298964747001053	0.3834820174706429	0.8775983157745338	0.7279986683910341	0.3147821567733181	1.020032176022546	1.1537321291191704	0.2935486413597176	0.8943251506335116	1.2286413371020424	0.3611560749117409	0.8886591275160994	1.2194737538815021	0.2837080381797289	1.1265147371431894	1.203000590243867	0.1806668250783329	0.6588061480032522	0.3192719270087568	0.13612138466441068	0.8801748114096255	0.7115558507897393	0.09689641320929475	1.0467960058344146	1.1361626037464736	0.12549359278806738	0.8305164915725785	1.1804416034657663	0.06437656028948856	0.9041134876684778	1.1802047486835079	0.09135818208870486	1.0946139305487352	1.1814123000937162	0.35312786931315693	0.530591688602933	-0.2062906274314752	0.38768928554399706	0.41795725996414973	-0.4492183430678712	0.36218109327798204	0.3734187192659218	-0.281899824114943	0.49733858538284836	0.5355645159603187	-0.12020580604627829	0.5253427620013547	0.5138502719940203	0.15565061812842215	0.3611996132933945	0.4716699226650033	0.3275850586203416	0.28211650831176394	0.537639198682244	0.4018818744647451	0.27316658364947677	0.5551036761886174	0.4119333831685498	0.28256529498774224	0.5555030924763426	0.3975697042448349	0.19421960692792534	0.5250509104271261	-0.15599047879845424	0.13298768719523002	0.5723591751604096	0.09735372289049206	0.2110703248269901	0.51455168385094	0.32005630360568205	0.31078107486715517	0.4841334083844743	0.36950564754368337	0.3150268096870881	0.502404360036841	0.40749988074718113	0.27416436110971265	0.5480937690545467	0.4244711084506249
1	0.024390243902439025	0.4091618709803067	0.6236608608531786	0.3293416642478503	0.38236162256312395	0.8794968256370789	0.7323397860275241	0.3141003599319906	1.0171051334695373	1.148904867483894	0.2921107695938719	0.9070450324975557	1.232096305616452	0.3604654463776709	0.9201137495682671	1.2338983448132947	0.27766057129388816	1.0948048731626214	1.1923948335925683	0.17960688663844393	0.6550144795993138	0.3144956275534335	0.13483457083099118	0.8816670233507488	0.7158741716368723	0.09686768824237102	1.046919516049966	1.136135797890314	0.12086750851600589	0.8471823103155621	1.1851299886751139	0.06581160330001815	0.9045397908552586	1.180620667303044	0.10216036641320016	1.0781133670987397	1.1739133217521107	0.35311061130361343	0.5307787660397566	-0.20634659282561688	0.3877671733787715	0.4178145991205285	-0.4491681256447692	0.36226408846906755	0.37338588372351567	-0.2818796788421331	0.49363178737209323	0.5352768897402242	-0.12041355349473817	0.5252285179020494	0.5137459035019335	0.15552210165334662	0.36102467082035555	0.47124207126946605	0.32765810092242176	0.2747238132874361	0.5237809544040497	0.3973428154233456	0.2697110319659216	0.5417317242382613	0.4108380256008268	0.27769599427457253	0.5671250175659642	0.3965586557336154	0.19440077512787848	0.5255176062891679	-0.15618569666760831	0.13301515277374515	0.5704390113139285	0.09379300868353749	0.211429695014694	0.4999655396167882	0.31983783744006405	0.30682651578277165	0.48216440267992783	0.3689193374191361	0.3024331877526773	0.5045297927673406	0.4107779599328543	0.2700434182820674	0.5609732594760444	0.4253185658613867
2	0.04878048780487805	0.40518579502472096	0.6111305204150193	0.3288503224279173	0.38234262374051475	0.8794468913577725	0.7322643447307973	0.3141121946059903	1.017091721727121	1.1489341217947509	0.2922174049675089	0.9076092310760152	1.2329070542100355	0.36133839837852694	0.9241962637120373	1.2359896639207777	0.27800697913620526	1.0959474673433158	1.193049777885437	0.17494940565161665	0.672164971693116	0.3185876252551844	0.13605156192983517	0.8802850231757392	0.7119376158090104	0.096908472448559	1.047011338583442	1.1361716984611225	0.12108436967996801	0.8481668301745383	1.1852967959286431	0.06610932075061576	0.9060574626165366	1.1810137967302907	0.10237439577919695	1.0796716506823594	1.1736609936450375	0.35317377869723765	0.5292650308800411	-0.20963443382906713	0.3877909308179783	0.4177701173278702	-0.44918014499082065	0.3622479722784908	0.3734324994726905	-0.28190432173783164	0.4973101826714038	0.5357160871631996	-0.12025120806626649	0.5256903848440491	0.5124933446809101	0.15574553514205203	0.35670558781239114	0.4696563532889345	0.32720926042856946	0.27454122044357904	0.5245446872125905	0.3977637566149856	0.2694750379144239	0.542655099101516	0.4111273135749503	0.2774230089549704	0.5674533653422075	0.3967719484699367	0.1936643364619738	0.5267686307027603	-0.1530028088231026	0.13306482793572907	0.5704320995949287	0.09390571299405172	0.2060695251739868	0.5142838775708158	0.3234811660490692	0.30248981777015976	0.4958685516589395	0.3693645140907486	0.2939985604357686	0.5169901565640329	0.4144790741833366	0.2699757350263626	0.5609269549936685	0.42526549254763873
3	0.07317073170731707	0.4051319375921511	0.6110336881207152	0.3289432748414274	0.3822941560207458	0.8794734063623589	0.7322637545717607	0.31460743766487426	1.0200339511306094	1.153883339238039	0.29215860217852335	0.9071678102318645	1.2323348916282473	0.3650671587833903	0.8985823548216096	1.2238448852310595	0.2777531716220119	1.0954880456137706	1.1927861803297017	0.17493007281082873	0.672168918714525	0.3185623523983998	0.13485043222709808	0.8815504492632872	0.7158988589335927	0.09692828939241506	1.0469757137641682	1.1361953414901798	0.1208955540538857	0.8476660554792048	1.1852285920172951	0.06580295436978424	0.9053881769380069	1.1808755060728584	0.10218783376173061	1.078065220069406	1.1775454517503061	0.3566636113820252	0.5416530274570474	-0.2078965972543778	0.3842875691739598	0.4067144809166447	-0.4466606899233137	0.36213046976031854	0.37338546105445586	-0.2819115362367214	0.4973123836755931	0.5357310008783396	-0.12023038579200862	0.5255730863047373	0.5122713738400654	0.1557902300787434	0.357481800657122	0.46818170135959997	0.3238876753607008	0.27546208698955144	0.5232191495601826	0.3945707075669602	0.2666012389363148	0.530008120852379	0.41041515255453365	0.2790416965454007	0.5405441645331451	0.3963432545297714	0.19369156862179598	0.5267313887537758	-0.15299796885495992	0.1330765996119771	0.570381392091897	0.09397946166335916	0.21542283335945128	0.5030696902870272	0.32421536217067587	0.2953238376180759	0.48229730480189387	0.3714033237701834	0.2939549519831276	0.5166810574652035	0.41449074379921597	0.26683358999838586	0.549432614572021	0.42441024919825665
4	0.0975609756097561	0.40507874737380456	0.6109021840715686	0.3288882496782794	0.3823139449157463	0.879404106635326	0.7323156492933496	0.31405605206787307	1.017018179644731	1.1489475255935362	0.2920078220979308	0.906249105342121	1.2317091245361047	0.3645379607501067	0.940218734138953	1.240730835097236	0.27842025533350867	1.0970532562770603	1.1938709969921233	0.17500214450848003	0.6699589372398415	0.31027304129300765	0.13481197897141	0.8816020880799614	0.7157227110218156	0.0969150187955236	1.0469490693986856	1.1361903113764598	0.1238601155176819	0.8635818936993933	1.190089355660552	0.06633640089496896	0.9080456434349451	1.181631571639121	0.10290035355796547	1.0799141951110924	1.1775486949383	0.35314555960994237	0.5291222356456153	-0.20967480542937555	0.3842000128896406	0.4067156646251073	-0.4467237045052555	0.36219407267970505	0.37345272900708254	-0.28194267308473153	0.4936120423920783	0.5354487133024733	-0.12043056034506058	0.5223793197880359	0.5252925038591427	0.15511432529597927	0.35689582671260744	0.47155097836301657	0.3305572210738278	0.274742090111618	0.5244314441382327	0.3979638054272913	0.2697101496207525	0.5426231411668636	0.41137596388838565	0.2805102334479942	0.5339118285831951	0.4003848332263827	0.1936888420031084	0.5266588209996906	-0.1529900258093614	0.1330774361556742	0.572514230124149	0.09755870222230471	0.21014038857028872	0.517673425439308	0.32776618840690064	0.2995642866373008	0.4690058886906709	0.37119087301046205	0.2939907385037568	0.5165259988901723	0.4145656347338576	0.2669034551161591	0.5494514051508695	0.42457394416457817
